<!-- icons/move.svg -->
<svg
  viewBox="0 0 24 24"
  xmlns="http://www.w3.org/2000/svg"
>
  <path
    d="M12 2a1 1 0 0 1 1 1v2.586l1.293-1.293a1 1 0 1 1 1.414 1.414L12 10.414 8.293 6.707a1 1 0 0 1 1.414-1.414L11 5.586V3a1 1 0 0 1 1-1ZM3 11a1 1 0 1 1 0-2h2.586L4.293 7.707a1 1 0 1 1 1.414-1.414L10.414 12 5.707 16.707a1 1 0 1 1-1.414-1.414L5.586 13H3Zm18 0a1 1 0 1 1 0 2h-2.586l1.293 1.293a1 1 0 1 1-1.414 1.414L13.586 12l3.707-3.707a1 1 0 1 1 1.414 1.414L18.414 11H21Zm-7 8a1 1 0 1 1-2 0v-2.586l-1.293 1.293a1 1 0 1 1-1.414-1.414L12 13.586l3.707 3.707a1 1 0 1 1-1.414 1.414L13 16.414V19Z"
  />
</svg>
